Coordinates
version=1
nRows=14
nColumns=24
inDegrees=yes

Units are S.I. units (second, meters, Newtons, ...)
Angles are in degrees.

endheader
time	pelvis_tilt	pelvis_list	pelvis_rotation	pelvis_tx	pelvis_ty	pelvis_tz	hip_flexion_r	hip_adduction_r	hip_rotation_r	knee_angle_r	ankle_angle_r	subtalar_angle_r	mtp_angle_r	hip_flexion_l	hip_adduction_l	hip_rotation_l	knee_angle_l	ankle_angle_l	subtalar_angle_l	mtp_angle_l	lumbar_extension	lumbar_bending	lumbar_rotation
      2.94000000	     94.30386124	     19.72287880	    -93.74644612	      0.35752966	      0.29017985	      1.01837522	     -1.13570611	    -13.69370973	      1.42514339	    -52.30827955	    -33.60472780	     -1.74545602	    -25.17324631	     -9.97118976	    -15.33291086	    -10.11246266	    -59.36991962	    -24.87157034	     -0.14557499	     73.45799169	      0.00000000	      0.00000000	      0.00000000
      2.95000000	     94.33354214	     19.75672001	    -93.75609304	      0.35756955	      0.29018994	      1.01830181	     -1.12787936	    -13.64571818	      1.23386813	    -52.38339010	    -33.58106362	     -1.74545602	    -25.17324631	     -9.95317175	    -15.34387618	    -10.12121738	    -59.36965427	    -24.86691363	     -0.14557499	     73.45799169	      0.00000000	      0.00000000	      0.00000000
      2.96000000	     94.35711701	     19.78690290	    -93.76303384	      0.35759843	      0.29021096	      1.01820447	     -1.12226650	    -13.59474889	      1.03643509	    -52.46607918	    -33.58325627	     -1.74545602	    -25.17324631	     -9.94037934	    -15.36053242	    -10.12441487	    -59.36603423	    -24.87340142	     -0.14557499	     73.45799169	      0.00000000	      0.00000000	      0.00000000
      2.97000000	     94.37421511	     19.79832155	    -93.75997165	      0.35763476	      0.29023251	      1.01821472	     -1.11374433	    -13.54574773	      0.83491703	    -52.54085517	    -33.62033920	     -1.74545602	    -25.17324631	     -9.94345133	    -15.38113391	    -10.11804526	    -59.35937773	    -24.89168113	     -0.14557499	     73.45799169	      0.00000000	      0.00000000	      0.00000000
      2.98000000	     94.38827771	     19.79038388	    -93.74635647	      0.35766383	      0.29026076	      1.01832862	     -1.10348680	    -13.50072312	      0.63376575	    -52.59963925	    -33.69323640	     -1.74545602	    -25.17324631	     -9.96127442	    -15.40166410	    -10.10043841	    -59.35109956	    -24.91919535	     -0.14557499	     73.45799169	      0.00000000	      0.00000000	      0.00000000
      2.99000000	     94.40603832	     19.77622085	    -93.72727288	      0.35765421	      0.29030688	      1.01842353	     -1.09908025	    -13.45952770	      0.43670179	    -52.64707443	    -33.79392788	     -1.74545602	    -25.17324631	     -9.98177142	    -15.41748465	    -10.07319318	    -59.34352183	    -24.95062229	     -0.14557499	     73.45799169	      0.00000000	      0.00000000	      0.00000000
      3.00000000	     94.43374829	     19.77004304	    -93.70718526	      0.35762259	      0.29035675	      1.01843723	     -1.10074057	    -13.42443914	      0.24225072	    -52.69928762	    -33.90809896	     -1.74545602	    -25.17324631	     -9.99055300	    -15.42596042	    -10.04099193	    -59.33941890	    -24.97933165	     -0.14557499	     73.45799169	      0.00000000	      0.00000000	      0.00000000
      3.01000000	     94.47284970	     19.77778953	    -93.68791838	      0.35762273	      0.29039615	      1.01841013	     -1.09299320	    -13.40238485	      0.03969356	    -52.78081706	    -34.01998705	     -1.74545602	    -25.17324631	     -9.98017589	    -15.42826346	    -10.01022686	    -59.34090899	    -24.99924764	     -0.14557499	     73.45799169	      0.00000000	      0.00000000	      0.00000000
      3.02000000	     94.51777605	     19.79689270	    -93.67211833	      0.35768337	      0.29044351	      1.01837788	     -1.05078997	    -13.40271649	     -0.19021191	    -52.91979147	    -34.11697473	     -1.74545602	    -25.17324631	     -9.95382970	    -15.42940441	     -9.98676434	    -59.34800944	    -25.00640247	     -0.14557499	     73.45799169	      0.00000000	      0.00000000	      0.00000000
      3.03000000	     94.55714527	     19.82033541	    -93.66506046	      0.35778472	      0.29050325	      1.01830842	     -0.95330916	    -13.43273224	     -0.46644286	    -53.13762770	    -34.19189151	     -1.74545602	    -25.17324631	     -9.92295663	    -15.43609570	     -9.97373992	    -59.35820137	    -24.99983111	     -0.14557499	     73.45799169	      0.00000000	      0.00000000	      0.00000000
      3.04000000	     94.57936521	     19.84004756	    -93.67149744	      0.35787401	      0.29052248	      1.01820270	     -0.79667097	    -13.49190904	     -0.79354030	    -53.43435357	    -34.24255351	     -1.74545602	    -25.17324631	     -9.90081010	    -15.45302529	     -9.97039431	    -59.36760919	    -24.98161629	     -0.14557499	     73.45799169	      0.00000000	      0.00000000	      0.00000000
      3.05000000	     94.58071387	     19.85004144	    -93.69065871	      0.35790201	      0.29045067	      1.01817096	     -0.60192219	    -13.56690052	     -1.14963691	    -53.77754779	    -34.26968170	     -1.74545602	    -25.17324631	     -9.89500353	    -15.47955260	     -9.97244157	    -59.37291240	    -24.95611467	     -0.14557499	     73.45799169	      0.00000000	      0.00000000	      0.00000000
      3.06000000	     94.56958212	     19.85036240	    -93.71404401	      0.35787076	      0.29031838	      1.01827127	     -0.41543695	    -13.63244037	     -1.48551029	    -54.10471426	    -34.27502107	     -1.74545602	    -25.17324631	     -9.90328499	    -15.50916381	     -9.97371041	    -59.37256794	    -24.92878791	     -0.14557499	     73.45799169	      0.00000000	      0.00000000	      0.00000000
      3.07000000	     94.56183274	     19.84665154	    -93.72869870	      0.35783160	      0.29021536	      1.01839730	     -0.29514204	    -13.66046556	     -1.74069061	    -54.34316794	    -34.26092016	     -1.74545602	    -25.17324631	     -9.91589412	    -15.53261495	     -9.96827379	    -59.36659331	    -24.90513875	     -0.14557499	     73.45799169	      0.00000000	      0.00000000	      0.00000000
